HIERARCHY
ROOT Hips
{
	OFFSET 0.000000 8.830580 0.000000
	CHANNELS 6 Xposition Yposition Zposition Zrotation Yrotation Xrotation 
	JOINT Spine
	{
		OFFSET 0.000000 0.010000 0.000000
		CHANNELS 3 Zrotation Yrotation Xrotation
		JOINT Spine1
		{
			OFFSET 0.000000 2.459130 0.000000
			CHANNELS 3 Zrotation Yrotation Xrotation
			JOINT Neck
			{
				OFFSET 0.000000 2.484630 0.000000
				CHANNELS 3 Zrotation Yrotation Xrotation
				JOINT Head_virtual
				{
					OFFSET 0.000000 0.000000 0.000000
					CHANNELS 3 Zrotation Yrotation Xrotation
					JOINT Head
					{
						OFFSET 0.000000 0.927525 0.000000
						CHANNELS 3 Zrotation Yrotation Xrotation
						End Site
						{
							OFFSET 0.000000 0.000000 0.000000
						}
					}
				}
				JOINT LeftUpArm_virtual
				{
					OFFSET 0.000000 0.000000 0.000000
					CHANNELS 3 Zrotation Yrotation Xrotation
					JOINT LeftUpArm
					{
						OFFSET 1.248820 0.000000 0.000000
						CHANNELS 3 Zrotation Yrotation Xrotation
						JOINT LeftForeArm
						{
							OFFSET 2.597580 0.000000 0.000000
							CHANNELS 3 Zrotation Yrotation Xrotation
							JOINT LeftHand
							{
								OFFSET 2.455420 0.000000 0.000000
								CHANNELS 3 Zrotation Yrotation Xrotation
								End Site
								{
									OFFSET 0.000000 0.000000 0.000000
								}
							}
						}
					}
				}
				JOINT RightUpArm_virtual
				{
					OFFSET -0.000000 -0.000000 -0.000000
					CHANNELS 3 Zrotation Yrotation Xrotation
					JOINT RightUpArm
					{
						OFFSET -1.248820 -0.000000 -0.000000
						CHANNELS 3 Zrotation Yrotation Xrotation
						JOINT RightForeArm
						{
							OFFSET -2.597580 -0.000000 -0.000000
							CHANNELS 3 Zrotation Yrotation Xrotation
							JOINT RightHand
							{
								OFFSET -2.455420 -0.000000 -0.000000
								CHANNELS 3 Zrotation Yrotation Xrotation
								End Site
								{
									OFFSET 0.000000 0.000000 0.000000
								}
							}
						}
					}
				}
			}
		}
	}
	JOINT LeftUpLeg
	{
		OFFSET 1.271939 0.000000 0.000000
		CHANNELS 3 Zrotation Yrotation Xrotation
		JOINT LeftLowLeg
		{
			OFFSET 0.000000 -4.342910 0.000000
			CHANNELS 3 Zrotation Yrotation Xrotation
			JOINT LeftFoot
			{
				OFFSET 0.000000 -4.487670 0.000000
				CHANNELS 3 Zrotation Yrotation Xrotation
				JOINT LeftToeBase
				{
					OFFSET 0.000000 0.000000 1.515070
					CHANNELS 3 Zrotation Yrotation Xrotation
					End Site
					{
						OFFSET 0.000000 0.000000 0.000000
					}
				}
			}
		}
	}
	JOINT RightUpLeg
	{
		OFFSET -1.271939 0.000000 0.000000
		CHANNELS 3 Zrotation Yrotation Xrotation
		JOINT RightLowLeg
		{
			OFFSET 0.000000 -4.342910 0.000000
			CHANNELS 3 Zrotation Yrotation Xrotation
			JOINT RightFoot
			{
				OFFSET 0.000000 -4.487670 0.000000
				CHANNELS 3 Zrotation Yrotation Xrotation
				JOINT RightToeBase
				{
					OFFSET 0.000000 0.000000 1.515070
					CHANNELS 3 Zrotation Yrotation Xrotation
					End Site
					{
						OFFSET 0.000000 0.000000 0.000000
					}
				}
			}
		}
	}
}
MOTION
Frames: 8
Frame Time: 0.041667
-22.895679 8.995881 41.893366 -170.253856 9.139816 -174.795293 0.199594 3.233429 -14.597153 9.688164 -8.974415 17.985256 0.000000 0.000000 0.000000 -6.867423 -7.717550 30.768062 11.617607 11.125640 -83.988794 -34.558899 -3.303880 15.833900 -23.202000 -28.975700 62.518600 -180.000000 -79.486000 180.000000 43.147099 -20.223400 -14.443900 24.805099 3.784120 19.244200 17.837400 41.377800 52.562302 -180.000000 72.633003 -180.000000 -20.306299 26.676201 14.070500 17.028765 15.881259 -13.993253 0.000000 0.000000 15.854500 -20.484323 11.230011 2.725013 0.000000 0.000000 -37.706200 12.167903 2.507577 -4.391183 0.000000 0.000000 10.139200 13.643202 -13.759033 4.260163 0.000000 0.000000 -37.863199 
-22.879596 8.988934 41.908738 -169.926695 9.361244 -174.957515 0.202036 3.253055 -14.685695 10.248107 -8.953043 18.196519 0.000000 0.000000 0.000000 -6.971462 -7.665714 30.819748 11.536283 10.997855 -83.949010 -34.675400 -3.222190 15.587400 -23.326300 -28.922400 62.542702 180.000000 -79.615997 -180.000000 42.678200 -20.590200 -14.185700 24.710100 3.858870 19.232100 17.692699 41.480900 52.504799 -180.000000 72.752998 180.000000 -20.766399 27.162500 12.717200 17.698898 15.478729 -13.587968 0.000000 0.000000 15.500200 -21.575604 11.483720 2.595595 0.000000 0.000000 -37.547400 12.556747 3.114348 -4.279863 0.000000 0.000000 10.229400 13.683953 -13.914323 4.256109 0.000000 0.000000 -38.059299 
-22.862692 8.982362 41.921774 -169.624361 9.545287 -175.080563 0.042197 3.198455 -14.885723 11.048454 -8.938942 18.485588 0.000000 0.000000 0.000000 -7.088111 -7.673281 30.642224 11.474737 10.745530 -83.812078 -34.885300 -3.225170 15.381100 -23.425900 -28.789801 62.462101 -180.000000 -79.667000 180.000000 42.408298 -20.691999 -14.161000 24.550501 3.895380 19.214701 17.492701 41.570301 52.404301 -180.000000 72.652000 -180.000000 -19.678200 26.275600 15.954200 18.147815 16.345020 -13.380719 0.000000 0.000000 15.450800 -22.153955 10.639328 2.725387 0.000000 0.000000 -37.740299 12.926845 3.670475 -4.195321 0.000000 0.000000 10.313500 13.729528 -14.050442 4.247498 0.000000 0.000000 -38.160900 
-22.844499 8.978418 41.935412 -169.474072 9.733037 -175.300275 -0.338171 3.072856 -14.969225 11.932642 -8.907843 18.809723 0.000000 0.000000 0.000000 -7.260363 -7.440477 30.264340 11.515149 10.474999 -83.640469 -35.120800 -3.166080 15.161900 -23.493700 -28.707500 62.289001 180.000000 -79.674004 -180.000000 41.610298 -21.000099 -14.066800 24.398399 3.882820 19.240101 17.242701 41.744099 52.199799 -180.000000 72.676003 -180.000000 -19.863100 26.702200 14.791600 18.451338 17.251545 -13.145778 0.000000 0.000000 15.472400 -22.475854 9.906714 2.991038 0.000000 0.000000 -37.739201 13.178339 4.170997 -4.055499 0.000000 0.000000 10.423200 13.750525 -14.213271 4.212163 0.000000 0.000000 -38.253401 
-22.826698 8.976349 41.949531 -169.375883 9.830148 -175.523051 -0.712990 2.941153 -14.972983 12.711512 -8.869857 18.974930 0.000000 0.000000 0.000000 -7.372260 -7.326344 29.909740 11.592402 10.219151 -83.412095 -35.280998 -3.160840 15.055700 -23.574100 -28.569401 62.118599 -180.000000 -79.626999 180.000000 40.883400 -21.126301 -14.158200 24.219500 3.842160 19.180700 17.365700 41.819500 52.189400 -180.000000 72.759003 -180.000000 -20.195700 26.920300 12.990600 18.694580 17.763495 -13.024802 0.000000 0.000000 15.633600 -22.628419 9.521943 3.175799 0.000000 0.000000 -37.361799 13.400805 4.515916 -3.943642 0.000000 0.000000 10.550800 13.651760 -14.419863 4.207477 0.000000 0.000000 -38.225700 
-22.811433 8.974834 41.965057 -169.305752 9.873757 -175.616721 -0.992974 2.884070 -14.932553 13.308981 -8.763918 18.837262 0.000000 0.000000 0.000000 -7.439581 -7.258620 29.745106 11.715563 10.069550 -83.285975 -35.372601 -3.200780 14.983700 -23.722799 -28.371700 62.096298 -180.000000 -79.634003 180.000000 40.415699 -21.520201 -13.847900 24.115000 3.713630 19.232401 17.438200 41.843201 52.040501 180.000000 72.806000 180.000000 -19.758301 27.040400 12.506700 18.882553 17.837973 -13.086152 0.000000 0.000000 15.830500 -22.636210 9.503891 3.287471 0.000000 0.000000 -37.331301 13.576422 4.599282 -4.018792 0.000000 0.000000 10.745100 13.484745 -14.436406 4.258705 0.000000 0.000000 -38.194700 
-22.798642 8.973448 41.981798 -169.245468 9.894557 -175.684220 -1.164551 2.849739 -14.743945 13.739568 -8.648163 18.443617 0.000000 0.000000 0.000000 -7.533720 -7.167383 29.763839 11.791418 9.974099 -83.303400 -35.420101 -3.143400 14.930400 -23.900101 -28.225100 62.275002 -180.000000 -79.651001 180.000000 40.148602 -21.813700 -13.588300 24.010900 3.635830 19.295700 17.655899 41.775600 52.100700 -180.000000 72.815002 -180.000000 -18.645000 26.879801 15.060000 19.087230 17.340479 -13.163589 0.000000 0.000000 15.986300 -22.683043 9.939878 3.235416 0.000000 0.000000 -37.397699 13.726602 4.426058 -4.175454 0.000000 0.000000 11.011900 13.318339 -14.280228 4.339636 0.000000 0.000000 -38.278799 
-22.787733 8.971739 41.995998 -169.176648 9.910024 -175.761513 -1.202932 2.902388 -14.557185 13.991073 -8.503416 18.016836 0.000000 0.000000 0.000000 -7.589927 -7.159423 29.865680 11.920171 9.914487 -83.363408 -35.465900 -3.132690 14.923500 -23.999001 -28.087099 62.470699 180.000000 -79.625999 -180.000000 40.375702 -21.968700 -13.343700 23.965401 3.508030 19.294399 17.844299 41.795200 52.382500 -180.000000 72.846001 -180.000000 -19.487900 26.731300 13.807000 19.261058 17.037217 -13.210754 0.000000 0.000000 16.101200 -22.639567 10.238909 3.224402 0.000000 0.000000 -37.711500 13.872993 4.066587 -4.321020 0.000000 0.000000 11.284800 13.168613 -13.962041 4.460951 0.000000 0.000000 -38.566601 
